ffmpeg version N-55863-g9f38fac053-static https://johnvansickle.com/ffmpeg/  Copyright (c) 2000-2021 the FFmpeg developers
  built with gcc 8 (Debian 8.3.0-6)
  configuration: --enable-gpl --enable-version3 --enable-static --disable-debug --disable-ffplay --disable-indev=sndio --disable-outdev=sndio --cc=gcc --enable-fontconfig --enable-frei0r --enable-gnutls --enable-gmp --enable-libgme --enable-gray --enable-libaom --enable-libfribidi --enable-libass --enable-libvmaf --enable-libfreetype --enable-libmp3lame --enable-libopencore-amrnb --enable-libopencore-amrwb --enable-libopenjpeg --enable-librubberband --enable-libsoxr --enable-libspeex --enable-libsrt --enable-libvorbis --enable-libopus --enable-libtheora --enable-libvidstab --enable-libvo-amrwbenc --enable-libvpx --enable-libwebp --enable-libx264 --enable-libx265 --enable-libxml2 --enable-libdav1d --enable-libxvid --enable-libzvbi --enable-libzimg
  libavutil      56. 64.100 / 56. 64.100
  libavcodec     58.119.100 / 58.119.100
  libavformat    58. 65.101 / 58. 65.101
  libavdevice    58. 11.103 / 58. 11.103
  libavfilter     7.100.100 /  7.100.100
  libswscale      5.  8.100 /  5.  8.100
  libswresample   3.  8.100 /  3.  8.100
  libpostproc    55.  8.100 / 55.  8.100
[mov,mp4,m4a,3gp,3g2,mj2 @ 0x7733a00] st: 1 edit list: 1 Missing key frame while searching for timestamp: 0
[mov,mp4,m4a,3gp,3g2,mj2 @ 0x7733a00] st: 1 edit list 1 Cannot find an index entry before timestamp: 0.
[hevc @ 0x773b6c0] Invalid delta in scaling list data: -1.
Input #0, mov,mp4,m4a,3gp,3g2,mj2, from '/home/yiaapc5/public_html/f_data/data_userfiles/user_uploads/3232170153/v/1615152658.mp4':
  Metadata:
    major_brand     : isom
    minor_version   : 0
    compatible_brands: mp41avc1
    creation_time   : 2021-03-07T21:28:32.000000Z
    playback_requirements: QuickTime 6.0 or greater
    playback_requirements-eng: QuickTime 6.0 or greater
    encoder         : vlc 3.0.11 stream output
    encoder-eng     : vlc 3.0.11 stream output
  Duration: 00:00:45.43, start: 0.000000, bitrate: 7756 kb/s
    Stream #0:0(eng): Audio: aac (LC) (mp4a / 0x6134706D), 44100 Hz, mono, fltp, 92 kb/s (default)
    Metadata:
      creation_time   : 2021-03-07T21:28:32.000000Z
      handler_name    : SoundHandler
      vendor_id       : [0][0][0][0]
    Stream #0:1(eng): Video: hevc (Main) (hev1 / 0x31766568), yuv420p(tv, bt709), 1920x1080, 7653 kb/s, 29.91 fps, 30 tbr, 1000k tbn, 1000k tbc (default)
    Metadata:
      creation_time   : 2021-03-07T21:28:32.000000Z
      handler_name    : VideoHandler
      vendor_id       : [0][0][0][0]
Codec AVOption rc_eq (Set rate control equation. When computing the expression, besides the standard functions defined in the section 'Expression Evaluation', the following functions are available: bits2qp(bits), qp2bits(qp). Also the following constants are available: iTex pTex tex mv fCode iCount mcVar var isI isP isB avgQP qComp avgIITex avgPITex avgPPTex avgBPTex avgTex.) specified for output file #0 (/home/yiaapc5/public_html/f_data/data_userfiles/user_media/3232170153/v/f52e1fa76be9d13547e367aac9e22da5.mob.nomob.mp4) has not been used for any stream. The most likely reason is either wrong type (e.g. a video option with no video streams) or that it is a private option of some encoder which was not actually used for any stream.
[hevc @ 0x779e880] Invalid delta in scaling list data: -1.
Stream mapping:
  Stream #0:1 -> #0:0 (hevc (native) -> h264 (libx264))
  Stream #0:0 -> #0:1 (aac (native) -> aac (native))
Press [q] to stop, [?] for help
[libx264 @ 0x7746f40] Application has requested 32 threads. Using a thread count greater than 16 is not recommended.
[libx264 @ 0x7746f40] using SAR=136/135
[libx264 @ 0x7746f40] frame MB size (30x17) > level limit (396)
[libx264 @ 0x7746f40] VBV bitrate (10000) > level limit (768)
[libx264 @ 0x7746f40] VBV buffer (10000) > level limit (2000)
[libx264 @ 0x7746f40] MB rate (15300) > level limit (11880)
[libx264 @ 0x7746f40] using cpu capabilities: MMX2 SSE2Fast SSSE3 SSE4.2 AVX
[libx264 @ 0x7746f40] profile Constrained Baseline, level 1.3, 4:2:0, 8-bit
[libx264 @ 0x7746f40] 264 - core 161 r3040 35417dc - H.264/MPEG-4 AVC codec - Copyleft 2003-2021 - http://www.videolan.org/x264.html - options: cabac=0 ref=1 deblock=1:0:0 analyse=0x1:0 me=hex subme=1 psy=1 psy_rd=1.00:0.00 mixed_ref=0 me_range=16 chroma_me=1 trellis=0 8x8dct=0 cqm=0 deadzone=21,11 fast_pskip=1 chroma_qp_offset=0 threads=32 lookahead_threads=2 sliced_threads=0 nr=0 decimate=1 interlaced=0 bluray_compat=0 constrained_intra=0 bframes=0 weightp=0 keyint=300 keyint_min=25 scenecut=40 intra_refresh=0 rc_lookahead=30 rc=abr mbtree=1 bitrate=1000 ratetol=1.0 qcomp=0.60 qpmin=10 qpmax=51 qpstep=4 vbv_maxrate=10000 vbv_bufsize=10000 nal_hrd=none filler=0 ip_ratio=1.41 aq=1:1.00
Output #0, mp4, to '/home/yiaapc5/public_html/f_data/data_userfiles/user_media/3232170153/v/f52e1fa76be9d13547e367aac9e22da5.mob.nomob.mp4':
  Metadata:
    major_brand     : isom
    minor_version   : 0
    compatible_brands: mp41avc1
    encoder         : Lavf58.65.101
    playback_requirements: QuickTime 6.0 or greater
    playback_requirements-eng: QuickTime 6.0 or greater
    Stream #0:0(eng): Video: h264 (avc1 / 0x31637661), yuv420p(tv, bt709, progressive), 480x272 [SAR 136:135 DAR 16:9], q=2-31, 1000 kb/s, 30 fps, 15360 tbn (default)
    Metadata:
      creation_time   : 2021-03-07T21:28:32.000000Z
      handler_name    : VideoHandler
      vendor_id       : [0][0][0][0]
      encoder         : Lavc58.119.100 libx264
    Side data:
      cpb: bitrate max/min/avg: 10000000/0/1000000 buffer size: 10000000 vbv_delay: N/A
    Stream #0:1(eng): Audio: aac (LC) (mp4a / 0x6134706D), 44100 Hz, stereo, fltp, 92 kb/s (default)
    Metadata:
      creation_time   : 2021-03-07T21:28:32.000000Z
      handler_name    : SoundHandler
      vendor_id       : [0][0][0][0]
      encoder         : Lavc58.119.100 aac
frame=    1 fps=0.0 q=0.0 size=       0kB time=00:00:00.73 bitrate=   0.5kbits/s speed=7.51x    frame=   90 fps=0.0 q=31.0 size=       0kB time=00:00:03.59 bitrate=   0.1kbits/s dup=4 drop=0 speed=5.99x    frame=  170 fps=155 q=29.0 size=     256kB time=00:00:06.26 bitrate= 334.9kbits/s dup=4 drop=0 speed=5.69x    frame=  240 fps=150 q=29.0 size=     512kB time=00:00:08.60 bitrate= 487.3kbits/s dup=4 drop=0 speed=5.37x    frame=  326 fps=155 q=29.0 size=    1024kB time=00:00:11.46 bitrate= 731.7kbits/s dup=4 drop=0 speed=5.43x    frame=  401 fps=153 q=29.0 size=    1280kB time=00:00:13.97 bitrate= 750.5kbits/s dup=4 drop=0 speed=5.34x    frame=  490 fps=157 q=29.0 size=    1792kB time=00:00:16.92 bitrate= 867.6kbits/s dup=4 drop=0 speed=5.43x    frame=  586 fps=162 q=28.0 size=    2048kB time=00:00:20.12 bitrate= 833.6kbits/s dup=4 drop=0 speed=5.56x    frame=  683 fps=166 q=28.0 size=    2560kB time=00:00:23.35 bitrate= 898.0kbits/s dup=4 drop=0 speed=5.67x    frame=  775 fps=168 q=28.0 size=    3072kB time=00:00:26.44 bitrate= 951.8kbits/s dup=4 drop=0 speed=5.72x    frame=  867 fps=169 q=28.0 size=    3328kB time=00:00:29.48 bitrate= 924.7kbits/s dup=4 drop=0 speed=5.75x    frame=  950 fps=169 q=29.0 size=    3840kB time=00:00:32.26 bitrate= 974.8kbits/s dup=4 drop=0 speed=5.73x    frame= 1038 fps=169 q=29.0 size=    4096kB time=00:00:35.17 bitrate= 954.0kbits/s dup=4 drop=0 speed=5.74x    frame= 1134 fps=171 q=28.0 size=    4608kB time=00:00:38.39 bitrate= 983.1kbits/s dup=4 drop=0 speed=5.79x    frame= 1235 fps=173 q=28.0 size=    5120kB time=00:00:41.76 bitrate=1004.2kbits/s dup=4 drop=0 speed=5.85x    frame= 1351 fps=177 q=28.0 size=    5632kB time=00:00:45.34 bitrate=1017.5kbits/s dup=4 drop=0 speed=5.93x    frame= 1361 fps=177 q=-1.0 Lsize=    6036kB time=00:00:45.38 bitrate=1089.5kbits/s dup=5 drop=0 speed= 5.9x    
video:5483kB audio:514kB subtitle:0kB other streams:0kB global headers:0kB muxing overhead: 0.648501%
[libx264 @ 0x7746f40] frame I:5     Avg QP:23.31  size: 16243
[libx264 @ 0x7746f40] frame P:1356  Avg QP:26.45  size:  4081
[libx264 @ 0x7746f40] mb I  I16..4: 14.4%  0.0% 85.6%
[libx264 @ 0x7746f40] mb P  I16..4:  8.2%  0.0%  0.0%  P16..4: 75.2%  0.0%  0.0%  0.0%  0.0%    skip:16.6%
[libx264 @ 0x7746f40] final ratefactor: 22.50
[libx264 @ 0x7746f40] coded y,uvDC,uvAC intra: 52.8% 36.9% 17.4% inter: 34.2% 16.3% 1.8%
[libx264 @ 0x7746f40] i16 v,h,dc,p: 12% 54% 21% 12%
[libx264 @ 0x7746f40] i4 v,h,dc,ddl,ddr,vr,hd,vl,hu:  8% 47% 10%  4%  5%  2%  9%  2% 12%
[libx264 @ 0x7746f40] i8c dc,h,v,p: 42% 42% 11%  5%
[libx264 @ 0x7746f40] kb/s:990.05
[aac @ 0x776e100] Qavg: 253.363
